<svg version="1.1" xmlns="http://www.w3.org/2000/svg" width="212" height="205">
<path d="M0 0 C16.51835877 12.9623232 28.65198054 31.54868695 31.53125 52.6171875 C33.56293773 75.38902078 27.95755778 94.98252756 13.8125 112.76953125 C11.53907484 116.17966899 11.646052 117.75294382 12.27734375 121.71484375 C13.80816612 127.59230775 18.02148975 131.36054319 22.8125 134.76953125 C27.96189827 137.44038098 33.03641031 138.64435648 38.8125 137.76953125 C40.92058328 137.08899973 42.94249853 136.29336781 44.98828125 135.4453125 C47.37334566 134.56176616 49.30074837 134.40015601 51.8125 134.76953125 C52.4725 135.42953125 53.1325 136.08953125 53.8125 136.76953125 C53.59712387 141.31550595 51.59247937 143.58634143 48.5625 146.83203125 C47.41007812 148.08693359 47.41007812 148.08693359 46.234375 149.3671875 C37.30950166 158.22008606 26.94260803 162.54126982 14.4375 163.08203125 C4.35550606 162.81436769 -4.87477951 159.31134491 -13.1875 153.76953125 C-8.0891942 165.3565899 -2.56719224 172.50132036 8.80859375 178.25 C10.8125 179.76953125 10.8125 179.76953125 11.72265625 182.3203125 C11.75230469 183.12855469 11.78195313 183.93679687 11.8125 184.76953125 C7.72462108 188.85741017 0.11081041 188.86055189 -5.5 189.08203125 C-22.33095148 188.54296163 -36.48063568 181.60917663 -48.1875 169.76953125 C-48.75597656 169.21394531 -49.32445313 168.65835938 -49.91015625 168.0859375 C-51.01835557 166.99625962 -52.10668363 165.88637483 -53.1875 164.76953125 C-53.744375 165.42179688 -54.30125 166.0740625 -54.875 166.74609375 C-66.51712575 180.07947425 -78.99346515 187.37837498 -96.91796875 189.01953125 C-103.04631151 189.17541914 -109.28238451 188.43034498 -115.1875 186.76953125 C-116.1775 185.77953125 -116.1775 185.77953125 -117.1875 184.76953125 C-117.1328125 182.35546875 -117.1328125 182.35546875 -116.1875 179.76953125 C-113.9296875 177.99609375 -113.9296875 177.99609375 -111.0625 176.39453125 C-101.21671332 170.44630049 -96.89377092 164.26813561 -92.1875 153.76953125 C-92.77015625 154.16785156 -93.3528125 154.56617188 -93.953125 154.9765625 C-104.21672727 161.6091734 -114.98429109 164.25591761 -127.08984375 162.30078125 C-140.10205108 159.48733102 -150.73231056 152.9523154 -158.1875 141.76953125 C-158.375 138.64453125 -158.375 138.64453125 -158.1875 135.76953125 C-157.8575 135.43953125 -157.5275 135.10953125 -157.1875 134.76953125 C-153.68086227 135.11331926 -150.56885337 135.63159493 -147.25 136.83203125 C-138.80069112 139.41855438 -132.50544014 136.97083406 -125 133.14453125 C-120.5185874 129.36022728 -117.67732439 124.78383521 -116.73046875 118.95703125 C-117.38065661 114.42238769 -119.65285524 111.73711917 -122.375 108.14453125 C-131.0437058 96.12567433 -136.32530498 82.66933887 -137.1875 67.76953125 C-137.22875 67.08761719 -137.27 66.40570313 -137.3125 65.703125 C-137.96057437 43.70910116 -129.07007715 23.65674077 -114.1875 7.76953125 C-83.2079334 -22.61515446 -35.01757185 -24.50371755 0 0 Z " fill="#565DAB" transform="translate(158.1875,16.23046875)"/>
<path d="M0 0 C6.04647777 5.20941015 10.56233623 10.84079601 11.2109375 19.00390625 C11.55590182 28.83658724 10.55230733 35.48653996 4.45703125 43.51171875 C-1.87046937 50.18672512 -11.46321641 52.22578161 -20.0625 54.5625 C-21.04992187 54.83191406 -22.03734375 55.10132812 -23.0546875 55.37890625 C-45.00510948 60.03604326 -72.13840219 57.29389311 -91.4375 45.5 C-98.21134457 37.91974536 -101.07754969 30.04672487 -100.57421875 19.890625 C-99.17632704 10.79899342 -94.10916432 4.22947762 -87.0625 -1.4375 C-60.21005316 -20.7669423 -26.11855662 -20.25235673 0 0 Z " fill="#FDFDFE" transform="translate(150.0625,62.4375)"/>
<path d="M0 0 C2.475 0.99 2.475 0.99 5 2 C5.39852399 13.40221402 5.39852399 13.40221402 3 17 C-6.23840461 25.60594659 -16.61941501 28.52988853 -28.98046875 28.26953125 C-39.95987758 27.73721217 -48.87252217 23.24959695 -57 16 C-58.8046875 13.75 -58.8046875 13.75 -60 12 C-57.53722529 12.96939004 -55.10264098 13.9521707 -52.703125 15.0703125 C-42.81754507 19.32048221 -31.2437632 19.79917927 -21 16.375 C-12.22956895 12.57447988 -5.9050057 7.4809397 0 0 Z " fill="#41569C" transform="translate(65,149)"/>
<path d="M0 0 C0.61875 0.66 1.2375 1.32 1.875 2 C12.95291497 12.9530934 23.47788986 18.2221661 39.11669922 18.32568359 C45.36828024 18.22384651 50.37051751 16.54534357 56 14 C57.66441908 13.3277416 59.33048052 12.6594899 61 12 C54.80177816 20.15555506 46.23111828 26.13839803 36 28 C21.30847092 29.35075352 9.46473795 26.33347256 -2 17 C-3.93923052 15.06076948 -3.21866472 11.63460405 -3.25 9.0625 C-3.27578125 7.79535156 -3.3015625 6.52820313 -3.328125 5.22265625 C-3.21984375 4.15917969 -3.1115625 3.09570312 -3 2 C-2.01 1.34 -1.02 0.68 0 0 Z " fill="#41569C" transform="translate(145,149)"/>
<path d="M0 0 C3.96 0 7.92 0 12 0 C12.32871094 1.45019531 12.32871094 1.45019531 12.6640625 2.9296875 C14.63189956 11.17126492 16.98947543 18.02997894 22 25 C22.7425 26.051875 23.485 27.10375 24.25 28.1875 C32.99590483 37.13217539 43.55616465 42.06084262 56 43 C56 43.33 56 43.66 56 44 C41.36291985 45.23500364 28.96288614 41.30800514 17.4609375 32.16430664 C8.9427365 24.84935531 2.61735057 14.96358736 0 4 C0 2.68 0 1.36 0 0 Z " fill="#41569C" transform="translate(100,159)"/>
<path d="M0 0 C0.66 0 1.32 0 2 0 C5.86598596 9.32482451 5.86598596 9.32482451 6.25 14.125 C1.15599106 25.84122055 -11.03422915 32.55189605 -22.3359375 37.0546875 C-26.49166174 38.52929933 -29.82488299 39.12072522 -34.25 39.0625 C-35.14203125 39.05347656 -36.0340625 39.04445312 -36.953125 39.03515625 C-37.62859375 39.02355469 -38.3040625 39.01195312 -39 39 C-36.19846444 37.13230962 -34.67036013 36.57935659 -31.5 35.8125 C-20.5975933 32.62931556 -11.95671912 25.86930403 -6.3125 16.0703125 C-3.59731891 10.83575665 -1.30810898 5.75567951 0 0 Z " fill="#42569C" transform="translate(98,164)"/>
<path d="M0 0 C2.625 0.4375 2.625 0.4375 4.875 2.6875 C7.86850736 7.391583 8.22332446 11.89784077 7.625 17.4375 C6.56906544 20.95499629 5.25499499 23.80750501 2.625 26.4375 C-0.17071976 26.79592561 -1.72328506 26.89611422 -4.0625 25.25 C-7.82808978 20.04989982 -8.04360942 14.6745282 -7.375 8.4375 C-4.37702634 0.80629433 -4.37702634 0.80629433 0 0 Z " fill="#5C63AE" transform="translate(81.375,72.5625)"/>
<path d="M0 0 C3.47409505 0.95537614 4.5383567 2.74503506 6.5 5.6875 C8.47559808 9.63869616 7.94489672 14.38297981 7.5 18.6875 C6.44058187 21.6529455 5.13927718 23.97244718 3.5 26.6875 C0.6875 26.9375 0.6875 26.9375 -2.5 26.6875 C-6.38150803 22.80599197 -6.69662251 18.66267271 -6.8125 13.375 C-6.74773392 6.12119883 -6.74773392 6.12119883 -4.8125 2.875 C-2.5 0.6875 -2.5 0.6875 0 0 Z " fill="#5960AC" transform="translate(129.5,72.3125)"/>
</svg>
